# xmcd CD database file
#
# Track frame offsets:
#	150
#	40511
#	59945
#	72916
#	110483
#	126281
#	148327
#	180163
#	204037
#	230317
#	256560
#	294799
#	318849
#
# Disc length: 4739 seconds
#
# Revision: 1
# Processed by: cddbd v1.5.2PL0 Copyright (c) Steve Scherf et al.
# Submitted via: CDex 1.70beta2
#
DISCID=b012810d
DTITLE=Van Morrison - Way Up On The Avenue
DYEAR=1998
DGENRE=Blues
TTITLE0=It's A Man's, Man's World
TTITLE1=It Once Was My Life
TTITLE2=Domino - Shot Of Rhythm_Blues
TTITLE3=See Me Through - Soldier Of Fortune - Thank You
TTITLE4=Blue Suede Shoes (Duet with Bob Dylan)
TTITLE5=Sometimes We Cry
TTITLE6=Tupelo Hones
TTITLE7=The Healing Game
TTITLE8=Fire In The Belly
TTITLE9=Satisfied
TTITLE10=Summertime In England
TTITLE11=Have I Told You Lately
TTITLE12=Cyprus Avenue
EXTD=YEAR: 1998
EXTT0=
EXTT1=
EXTT2=
EXTT3=
EXTT4=
EXTT5=
EXTT6=
EXTT7=
EXTT8=
EXTT9=
EXTT10=
EXTT11=
EXTT12=
PLAYORDER=
